<svg width="190" height="190" viewBox="0 0 190 190" fill="none" xmlns="http://www.w3.org/2000/svg">
<path d="M159.098 48.5142L128.963 20.8264C128.385 20.2972 127.603 20 126.788 20H43.0769C41.3785 20 40 21.2679 40 22.8302V167.17C40 168.732 41.3785 170 43.0769 170H156.923C158.622 170 160 168.732 160 167.17V50.5179C160 49.7651 159.677 49.0462 159.098 48.5142ZM149.495 48.3019H129.231V29.6623L149.495 48.3019ZM46.1538 164.34V25.6604H123.077V51.1321C123.077 52.6943 124.455 53.9623 126.154 53.9623H153.846V164.34H46.1538Z" fill="black" stroke="black" stroke-width="3"/>
</svg>
