<svg width="16" height="16" viewBox="0 0 16 16" fill="none" xmlns="http://www.w3.org/2000/svg">
<path d="M15.854 12.854L11 8.00002L15.854 3.14602C15.947 3.05187 15.9991 2.92486 15.9991 2.79252C15.9991 2.66017 15.947 2.53316 15.854 2.43902L13.561 0.146015C13.5146 0.0994826 13.4595 0.0625609 13.3988 0.0373679C13.3382 0.012175 13.2731 -0.000793457 13.2075 -0.000793457C13.1418 -0.000793457 13.0767 0.012175 13.0161 0.0373679C12.9554 0.0625609 12.9003 0.0994826 12.854 0.146015L7.99995 5.00002L3.14595 0.146015C3.05219 0.0522797 2.92504 -0.000378038 2.79245 -0.000378038C2.65987 -0.000378038 2.53272 0.0522797 2.43895 0.146015L0.145954 2.43902C0.0994215 2.48538 0.0624998 2.54047 0.0373069 2.60113C0.0121139 2.66179 -0.000854492 2.72683 -0.000854492 2.79252C-0.000854492 2.8582 0.0121139 2.92324 0.0373069 2.9839C0.0624998 3.04456 0.0994215 3.09965 0.145954 3.14602L4.99995 8.00002L0.145954 12.854C0.0522186 12.9478 -0.000439073 13.0749 -0.000439073 13.2075C-0.000439073 13.3401 0.0522186 13.4673 0.145954 13.561L2.43895 15.854C2.48531 15.9005 2.54041 15.9375 2.60107 15.9627C2.66173 15.9879 2.72677 16.0008 2.79245 16.0008C2.85814 16.0008 2.92318 15.9879 2.98384 15.9627C3.0445 15.9375 3.09959 15.9005 3.14595 15.854L7.99995 11L12.854 15.854C12.9477 15.9478 13.0749 16.0004 13.2075 16.0004C13.34 16.0004 13.4672 15.9478 13.561 15.854L15.854 13.561C15.9005 13.5147 15.9374 13.4596 15.9626 13.3989C15.9878 13.3382 16.0008 13.2732 16.0008 13.2075C16.0008 13.1418 15.9878 13.0768 15.9626 13.0161C15.9374 12.9555 15.9005 12.9004 15.854 12.854Z" fill="#F24E1E"/>
</svg>
