<svg width="190" height="190" viewBox="0 0 190 190" fill="none" xmlns="http://www.w3.org/2000/svg">
<g clip-path="url(#clip0_1_32)">
<path fill-rule="evenodd" clip-rule="evenodd" d="M0 0H190V190H0V0Z" stroke="black" stroke-width="0.008"/>
<path d="M99.3109 20C101.678 20 103.597 22.3985 103.597 25.3571C103.597 28.1045 101.942 30.3688 99.8107 30.6782L99.3109 30.7143H56.4286C49.5814 30.7143 43.9843 37.4049 43.5933 45.8414L43.5714 46.7857V143.214C43.5714 151.773 48.9239 158.77 55.6731 159.258L56.4286 159.286H133.571C140.419 159.286 146.016 152.595 146.407 144.159L146.429 143.214V89.6628C146.429 86.7041 148.347 84.3057 150.714 84.3057C152.912 84.3057 154.724 86.3737 154.971 89.038L155 89.6628V143.214C155 157.618 145.904 169.367 134.501 169.975L133.571 170H56.4286C44.9053 170 35.5065 158.631 35.0198 144.376L35 143.214V46.7857C35 32.3817 44.0956 20.6331 55.499 20.0247L56.4286 20H99.3109ZM149.374 30.7095C154.395 36.9858 154.395 47.1616 149.374 53.4379L107.876 105.311C105.628 108.12 102.909 110.27 99.9154 111.603L84.4812 118.477C82.2516 119.47 79.8001 118.016 79.0057 115.229C78.6648 114.033 78.6747 112.724 79.0337 111.537L85.3229 90.7305C86.1828 87.8857 87.5172 85.3024 89.2374 83.1521L131.192 30.7095C136.213 24.4332 144.353 24.4332 149.374 30.7095ZM137.626 37.8693L137.252 38.2856L95.2983 90.7282C94.6102 91.5884 94.0456 92.5871 93.6271 93.6804L93.3411 94.5174L90.3251 104.503L97.0385 101.51C98.5354 100.843 99.9179 99.8368 101.117 98.5445L101.815 97.7351L143.313 45.8618C144.987 43.7697 144.987 40.3777 143.313 38.2856C141.759 36.343 139.308 36.2042 137.626 37.8693Z" fill="black" stroke="black" stroke-width="0.008"/>
</g>
<defs>
<clipPath id="clip0_1_32">
<rect width="190" height="190" fill="white"/>
</clipPath>
</defs>
</svg>
