<svg width="512" height="512" viewBox="0 0 512 512" fill="none" xmlns="http://www.w3.org/2000/svg">
<path d="M336 32C307.8 32 254.8 56.81 220.7 84.59C156.5 94.55 80 119.4 80 144C80 173 184.8 201.9 252.1 207.2C276.7 229 322.8 240 336 240C323.5 227.5 311 214.9 313.8 202.4C347.8 194.2 383.2 178.4 414.3 164.5C435.3 188.4 467.5 208 480 208C464 176 464 160 464 144C464 128 480 95.95 496 80C470.9 80 436 99.65 414.4 123.5C380.9 108.7 342.5 91.35 306 83.85C310.9 67.04 323.4 44.58 336 32ZM160 112C164.243 112 168.313 113.686 171.314 116.686C174.314 119.687 176 123.757 176 128C176 132.243 174.314 136.313 171.314 139.314C168.313 142.314 164.243 144 160 144C155.757 144 151.687 142.314 148.686 139.314C145.686 136.313 144 132.243 144 128C144 123.757 145.686 119.687 148.686 116.686C151.687 113.686 155.757 112 160 112ZM176 288C188.6 300.6 201.1 323 206 339.8C169.5 347.3 131.1 364.7 97.6 379.5C76 355.6 41.1 336 16 336C32 351.9 48 384 48 400C48 416 48 432 32 464C44.5 464 76.7 444.4 97.7 420.5C128.8 434.4 164.2 450.2 198.2 458.4C201 470.9 188.5 483.5 176 496C189.2 496 235.3 485 259.9 463.2C327.2 457.9 432 429 432 400C432 375.4 355.5 350.6 291.3 340.6C257.2 312.8 204.2 288 176 288ZM352 368C356.243 368 360.313 369.686 363.314 372.686C366.314 375.687 368 379.757 368 384C368 388.243 366.314 392.313 363.314 395.314C360.313 398.314 356.243 400 352 400C347.757 400 343.687 398.314 340.686 395.314C337.686 392.313 336 388.243 336 384C336 379.757 337.686 375.687 340.686 372.686C343.687 369.686 347.757 368 352 368Z" fill="white"/>
</svg>
