<svg width="190" height="190" viewBox="0 0 190 190" fill="none" xmlns="http://www.w3.org/2000/svg">
<path d="M30 41.4286C30 35.7454 31.9566 30.2949 35.4394 26.2763C38.9223 22.2576 43.646 20 48.5714 20H126.376C131.301 20.0012 136.024 22.2597 139.506 26.2786L154.559 43.6464C158.042 47.6641 159.999 53.1137 160 58.7964V148.571C160 154.255 158.043 159.705 154.561 163.724C151.078 167.742 146.354 170 141.429 170H48.5714C43.646 170 38.9223 167.742 35.4394 163.724C31.9566 159.705 30 154.255 30 148.571V41.4286ZM48.5714 30.7143C46.1087 30.7143 43.7468 31.8431 42.0054 33.8524C40.264 35.8617 39.2857 38.587 39.2857 41.4286V148.571C39.2857 151.413 40.264 154.138 42.0054 156.148C43.7468 158.157 46.1087 159.286 48.5714 159.286V111.071C48.5714 106.809 50.0389 102.721 52.651 99.7072C55.2631 96.6932 58.8059 95 62.5 95H127.5C131.194 95 134.737 96.6932 137.349 99.7072C139.961 102.721 141.429 106.809 141.429 111.071V159.286C143.891 159.286 146.253 158.157 147.995 156.148C149.736 154.138 150.714 151.413 150.714 148.571V58.7964C150.714 55.9551 149.735 53.2303 147.994 51.2214L132.941 33.8536C131.2 31.8441 128.839 30.7149 126.376 30.7143H122.857V57.5C122.857 61.7624 121.39 65.8502 118.778 68.8642C116.165 71.8782 112.623 73.5714 108.929 73.5714H71.7857C68.0916 73.5714 64.5488 71.8782 61.9367 68.8642C59.3246 65.8502 57.8571 61.7624 57.8571 57.5V30.7143H48.5714ZM67.1429 30.7143V57.5C67.1429 58.9208 67.632 60.2834 68.5027 61.2881C69.3734 62.2927 70.5544 62.8571 71.7857 62.8571H108.929C110.16 62.8571 111.341 62.2927 112.212 61.2881C113.082 60.2834 113.571 58.9208 113.571 57.5V30.7143H67.1429ZM132.143 159.286V111.071C132.143 109.651 131.654 108.288 130.783 107.283C129.912 106.279 128.731 105.714 127.5 105.714H62.5C61.2686 105.714 60.0877 106.279 59.217 107.283C58.3463 108.288 57.8571 109.651 57.8571 111.071V159.286H132.143Z" fill="black"/>
</svg>
