<svg width="146" height="153" viewBox="0 0 146 153" fill="none" xmlns="http://www.w3.org/2000/svg">
<path d="M107.709 152L89 133.218L97.5259 124.659L107.709 134.912L137.474 105L146 113.559L107.709 152Z" fill="#4ECB71"/>
<path d="M63.3217 152.333C50.2275 152.333 39.5717 141.677 39.5717 128.583V90.8675C30.523 98.9742 15.6238 98.6179 6.94713 89.9571C2.49857 85.5012 0 79.4622 0 73.1658C0 66.8695 2.49857 60.8304 6.94713 56.3746L63.3217 0L119.696 56.3746C124.145 60.8304 126.643 66.8695 126.643 73.1658C126.643 79.4622 124.145 85.5012 119.696 89.9571C111.035 98.6258 96.1125 98.9821 87.0717 90.8675V128.583C87.0717 141.677 76.4159 152.333 63.3217 152.333ZM55.405 52.6933V128.583C55.4962 130.621 56.3701 132.546 57.8448 133.956C59.3195 135.366 61.2813 136.153 63.3217 136.153C65.3621 136.153 67.3239 135.366 68.7986 133.956C70.2733 132.546 71.1472 130.621 71.2384 128.583V52.6933L97.308 78.7629C98.815 80.204 100.82 81.0082 102.905 81.0082C104.99 81.0082 106.995 80.204 108.502 78.7629C109.238 78.0283 109.822 77.1559 110.22 76.1955C110.618 75.2351 110.823 74.2056 110.823 73.1658C110.823 72.1261 110.618 71.0966 110.22 70.1362C109.822 69.1758 109.238 68.3033 108.502 67.5687L63.3217 22.3883L18.1413 67.5687C17.4055 68.3033 16.8217 69.1758 16.4234 70.1362C16.0251 71.0966 15.8201 72.1261 15.8201 73.1658C15.8201 74.2056 16.0251 75.2351 16.4234 76.1955C16.8217 77.1559 17.4055 78.0283 18.1413 78.7629C19.6484 80.204 21.6532 81.0082 23.7384 81.0082C25.8236 81.0082 27.8284 80.204 29.3355 78.7629L55.405 52.6933Z" fill="black"/>
</svg>
