<svg width="190" height="190" viewBox="0 0 190 190" fill="none" xmlns="http://www.w3.org/2000/svg">
<path d="M95 166.25C81.9058 166.25 71.25 155.594 71.25 142.5V104.785C62.2012 112.892 47.3021 112.535 38.6254 103.875C34.1769 99.4187 31.6783 93.3797 31.6783 87.0833C31.6783 80.787 34.1769 74.7479 38.6254 70.2921L95 13.9175L151.375 70.2921C155.823 74.7479 158.322 80.787 158.322 87.0833C158.322 93.3797 155.823 99.4187 151.375 103.875C142.714 112.543 127.791 112.9 118.75 104.785V142.5C118.75 155.594 108.094 166.25 95 166.25ZM87.0833 66.6108V142.5C87.1745 144.538 88.0484 146.463 89.5231 147.873C90.9978 149.283 92.9596 150.07 95 150.07C97.0404 150.07 99.0022 149.283 100.477 147.873C101.952 146.463 102.825 144.538 102.917 142.5V66.6108L128.986 92.6804C130.493 94.1215 132.498 94.9257 134.583 94.9257C136.669 94.9257 138.673 94.1215 140.18 92.6804C140.916 91.9458 141.5 91.0734 141.898 90.113C142.297 89.1526 142.502 88.123 142.502 87.0833C142.502 86.0436 142.297 85.0141 141.898 84.0537C141.5 83.0933 140.916 82.2208 140.18 81.4862L95 36.3058L49.8196 81.4862C49.0838 82.2208 48.5 83.0933 48.1017 84.0537C47.7034 85.0141 47.4984 86.0436 47.4984 87.0833C47.4984 88.123 47.7034 89.1526 48.1017 90.113C48.5 91.0734 49.0838 91.9458 49.8196 92.6804C51.3267 94.1215 53.3315 94.9257 55.4167 94.9257C57.5018 94.9257 59.5067 94.1215 61.0137 92.6804L87.0833 66.6108Z" fill="black"/>
</svg>
