<svg width="137" height="153" viewBox="0 0 137 153" fill="none" xmlns="http://www.w3.org/2000/svg">
<path d="M63.3217 152.333C50.2275 152.333 39.5717 141.677 39.5717 128.583V90.8675C30.523 98.9742 15.6238 98.6179 6.94713 89.9571C2.49857 85.5012 0 79.4622 0 73.1658C0 66.8695 2.49857 60.8304 6.94713 56.3746L63.3217 0L119.696 56.3746C124.145 60.8304 126.643 66.8695 126.643 73.1658C126.643 79.4622 124.145 85.5012 119.696 89.9571C111.035 98.6258 96.1125 98.9821 87.0717 90.8675V128.583C87.0717 141.677 76.4159 152.333 63.3217 152.333ZM55.405 52.6933V128.583C55.4962 130.621 56.3701 132.546 57.8448 133.956C59.3195 135.366 61.2813 136.153 63.3217 136.153C65.3621 136.153 67.3239 135.366 68.7986 133.956C70.2733 132.546 71.1472 130.621 71.2384 128.583V52.6933L97.308 78.7629C98.815 80.204 100.82 81.0082 102.905 81.0082C104.99 81.0082 106.995 80.204 108.502 78.7629C109.238 78.0283 109.822 77.1559 110.22 76.1955C110.618 75.2351 110.823 74.2056 110.823 73.1658C110.823 72.1261 110.618 71.0966 110.22 70.1362C109.822 69.1758 109.238 68.3033 108.502 67.5687L63.3217 22.3883L18.1413 67.5687C17.4055 68.3033 16.8217 69.1758 16.4234 70.1362C16.0251 71.0966 15.8201 72.1261 15.8201 73.1658C15.8201 74.2056 16.0251 75.2351 16.4234 76.1955C16.8217 77.1559 17.4055 78.0283 18.1413 78.7629C19.6484 80.204 21.6532 81.0082 23.7384 81.0082C25.8236 81.0082 27.8284 80.204 29.3355 78.7629L55.405 52.6933Z" fill="black"/>
<g clip-path="url(#clip0_71_8)">
<path d="M135.913 143.237L122.261 129.585L135.913 115.933C136.175 115.668 136.322 115.311 136.322 114.939C136.322 114.566 136.175 114.209 135.913 113.944L129.464 107.495C129.334 107.365 129.179 107.261 129.008 107.19C128.838 107.119 128.655 107.082 128.47 107.082C128.285 107.082 128.102 107.119 127.932 107.19C127.761 107.261 127.606 107.365 127.476 107.495L113.824 121.147L100.172 107.495C99.9084 107.232 99.5508 107.084 99.1779 107.084C98.805 107.084 98.4474 107.232 98.1837 107.495L91.7346 113.944C91.6037 114.075 91.4999 114.23 91.429 114.4C91.3582 114.571 91.3217 114.754 91.3217 114.939C91.3217 115.123 91.3582 115.306 91.429 115.477C91.4999 115.648 91.6037 115.802 91.7346 115.933L105.386 129.585L91.7346 143.237C91.471 143.5 91.3229 143.858 91.3229 144.231C91.3229 144.604 91.471 144.961 91.7346 145.225L98.1837 151.674C98.3141 151.805 98.469 151.909 98.6396 151.98C98.8102 152.051 98.9932 152.087 99.1779 152.087C99.3626 152.087 99.5456 152.051 99.7162 151.98C99.8868 151.909 100.042 151.805 100.172 151.674L113.824 138.022L127.476 151.674C127.74 151.938 128.097 152.086 128.47 152.086C128.843 152.086 129.201 151.938 129.464 151.674L135.913 145.225C136.044 145.095 136.148 144.94 136.219 144.769C136.29 144.599 136.326 144.416 136.326 144.231C136.326 144.046 136.29 143.863 136.219 143.693C136.148 143.522 136.044 143.367 135.913 143.237Z" fill="#F24E1E"/>
</g>
<defs>
<clipPath id="clip0_71_8">
<rect width="45" height="45" fill="white" transform="translate(91.3217 107.082)"/>
</clipPath>
</defs>
</svg>
